<?xml version="1.0" encoding="utf-8"?>
<!-- Generator: Adobe Illustrator 24.1.0, SVG Export Plug-In . SVG Version: 6.00 Build 0)  -->
<svg version="1.1" xmlns="http://www.w3.org/2000/svg" xmlns:xlink="http://www.w3.org/1999/xlink" x="0px" y="0px"
	 viewBox="0 0 1920 1080" style="enable-background:new 0 0 1920 1080;" xml:space="preserve">
<g id="Background">
	<g>
		<rect x="0.5" y="0.5" width="1919" height="1079"/>
		<path style="fill:#FFFFFF;" d="M1919,1v1078H1V1H1919 M1920,0H0v1080h1920V0L1920,0z"/>
	</g>
</g>
<g id="Square-Kick">
	<g>
		<rect x="728" y="308" style="fill:none;" width="464" height="464"/>
		<path style="fill:#FFFFFF;" d="M713,293v494h494V293H713z M1192,772H728V308h464V772z"/>
	</g>
</g>
<g id="Cross-Clap">
	<polygon style="fill:#FFFFFF;" points="1136,388 1112,364 960,516 808,364 784,388 936,540 784,692 808,716 960,564 1112,716 
		1136,692 984,540 	"/>
</g>
<g id="Circles-HH">
	<g>
		<path style="fill:none;" d="M1435.9,464.7c-9.8-4.1-20.5-6.4-31.8-6.4c-17,0-32.6,5.1-45.7,13.9c-13.1,8.8-23.4,21.3-29.6,36
			c-4.1,9.8-6.4,20.5-6.4,31.8c0,17,5.1,32.6,13.9,45.7c8.8,13.1,21.3,23.4,36,29.6c9.8,4.1,20.5,6.4,31.8,6.4
			c17,0,32.6-5.1,45.7-13.9c13.1-8.8,23.4-21.3,29.6-36c4.1-9.8,6.4-20.5,6.4-31.8c0-17-5.1-32.6-13.9-45.7
			C1463,481.3,1450.5,470.9,1435.9,464.7z"/>
		<path style="fill:#FFFFFF;" d="M1503.3,498.1c-8.2-19.3-21.8-35.8-39-47.4c-17.2-11.6-38-18.4-60.2-18.4c-14.8,0-29,3-41.9,8.5
			c-19.3,8.2-35.8,21.8-47.4,39c-11.6,17.2-18.4,38-18.4,60.2c0,14.8,3,29,8.5,41.9c8.2,19.3,21.8,35.8,39,47.4
			c17.2,11.6,38,18.4,60.2,18.4c14.8,0,29-3,41.9-8.5c19.3-8.2,35.8-21.8,47.4-39c11.6-17.2,18.4-38,18.4-60.2
			C1511.8,525.2,1508.8,511,1503.3,498.1z M1479.4,571.8c-6.2,14.6-16.6,27.2-29.6,36c-13.1,8.8-28.7,13.9-45.7,13.9
			c-11.3,0-22-2.3-31.8-6.4c-14.6-6.2-27.2-16.6-36-29.6c-8.8-13.1-13.9-28.7-13.9-45.7c0-11.3,2.3-22,6.4-31.8
			c6.2-14.6,16.6-27.2,29.6-36c13.1-8.8,28.7-13.9,45.7-13.9c11.3,0,22,2.3,31.8,6.4c14.6,6.2,27.2,16.6,36,29.6
			c8.8,13.1,13.9,28.7,13.9,45.7C1485.8,551.3,1483.5,562,1479.4,571.8z"/>
	</g>
	<g>
		<path style="fill:none;" d="M1740.1,464.7c-9.8-4.1-20.5-6.4-31.8-6.4c-17,0-32.6,5.1-45.7,13.9c-13.1,8.8-23.4,21.3-29.6,36
			c-4.1,9.8-6.4,20.5-6.4,31.8c0,17,5.1,32.6,13.9,45.7c8.8,13.1,21.3,23.4,36,29.6c9.8,4.1,20.5,6.4,31.8,6.4
			c17,0,32.6-5.1,45.7-13.9c13.1-8.8,23.4-21.3,29.6-36c4.1-9.8,6.4-20.5,6.4-31.8c0-17-5.1-32.6-13.9-45.7
			C1767.2,481.3,1754.7,470.9,1740.1,464.7z"/>
		<path style="fill:#FFFFFF;" d="M1807.5,498.1c-8.2-19.3-21.8-35.8-39-47.4c-17.2-11.6-38-18.4-60.2-18.4c-14.8,0-29,3-41.9,8.5
			c-19.3,8.2-35.8,21.8-47.4,39c-11.6,17.2-18.4,38-18.4,60.2c0,14.8,3,29,8.5,41.9c8.2,19.3,21.8,35.8,39,47.4
			c17.2,11.6,38,18.4,60.2,18.4c14.8,0,29-3,41.9-8.5c19.3-8.2,35.8-21.8,47.4-39c11.6-17.2,18.4-38,18.4-60.2
			C1816,525.2,1813,511,1807.5,498.1z M1783.6,571.8c-6.2,14.6-16.6,27.2-29.6,36c-13.1,8.8-28.7,13.9-45.7,13.9
			c-11.3,0-22-2.3-31.8-6.4c-14.6-6.2-27.2-16.6-36-29.6c-8.8-13.1-13.9-28.7-13.9-45.7c0-11.3,2.3-22,6.4-31.8
			c6.2-14.6,16.6-27.2,29.6-36c13.1-8.8,28.7-13.9,45.7-13.9c11.3,0,22,2.3,31.8,6.4c14.6,6.2,27.2,16.6,36,29.6
			c8.8,13.1,13.9,28.7,13.9,45.7C1790,551.3,1787.7,562,1783.6,571.8z"/>
	</g>
	<g>
		<path style="fill:none;" d="M230.9,464.7c-9.8-4.1-20.5-6.4-31.8-6.4c-17,0-32.6,5.1-45.7,13.9c-13.1,8.8-23.4,21.3-29.6,36
			c-4.1,9.8-6.4,20.5-6.4,31.8c0,17,5.1,32.6,13.9,45.7c8.8,13.1,21.3,23.4,36,29.6c9.8,4.1,20.5,6.4,31.8,6.4
			c17,0,32.6-5.1,45.7-13.9c13.1-8.8,23.4-21.3,29.6-36c4.1-9.8,6.4-20.5,6.4-31.8c0-17-5.1-32.6-13.9-45.7
			C258,481.3,245.5,470.9,230.9,464.7z"/>
		<path style="fill:#FFFFFF;" d="M298.3,498.1c-8.2-19.3-21.8-35.8-39-47.4c-17.2-11.6-38-18.4-60.2-18.4c-14.8,0-29,3-41.9,8.5
			c-19.3,8.2-35.8,21.8-47.4,39c-11.6,17.2-18.4,38-18.4,60.2c0,14.8,3,29,8.5,41.9c8.2,19.3,21.8,35.8,39,47.4
			c17.2,11.6,38,18.4,60.2,18.4c14.8,0,29-3,41.9-8.5c19.3-8.2,35.8-21.8,47.4-39c11.6-17.2,18.4-38,18.4-60.2
			C306.8,525.2,303.8,511,298.3,498.1z M274.4,571.8c-6.2,14.6-16.6,27.2-29.6,36c-13.1,8.8-28.7,13.9-45.7,13.9
			c-11.3,0-22-2.3-31.8-6.4c-14.6-6.2-27.2-16.6-36-29.6c-8.8-13.1-13.9-28.7-13.9-45.7c0-11.3,2.3-22,6.4-31.8
			c6.2-14.6,16.6-27.2,29.6-36c13.1-8.8,28.7-13.9,45.7-13.9c11.3,0,22,2.3,31.8,6.4c14.6,6.2,27.2,16.6,36,29.6
			c8.8,13.1,13.9,28.7,13.9,45.7C280.8,551.3,278.5,562,274.4,571.8z"/>
	</g>
	<g>
		<path style="fill:none;" d="M535.1,464.7c-9.8-4.1-20.5-6.4-31.8-6.4c-17,0-32.6,5.1-45.7,13.9c-13.1,8.8-23.4,21.3-29.6,36
			c-4.1,9.8-6.4,20.5-6.4,31.8c0,17,5.1,32.6,13.9,45.7c8.8,13.1,21.3,23.4,36,29.6c9.8,4.1,20.5,6.4,31.8,6.4
			c17,0,32.6-5.1,45.7-13.9c13.1-8.8,23.4-21.3,29.6-36c4.1-9.8,6.4-20.5,6.4-31.8c0-17-5.1-32.6-13.9-45.7
			C562.2,481.3,549.7,470.9,535.1,464.7z"/>
		<path style="fill:#FFFFFF;" d="M602.5,498.1c-8.2-19.3-21.8-35.8-39-47.4c-17.2-11.6-38-18.4-60.2-18.4c-14.8,0-29,3-41.9,8.5
			c-19.3,8.2-35.8,21.8-47.4,39c-11.6,17.2-18.4,38-18.4,60.2c0,14.8,3,29,8.5,41.9c8.2,19.3,21.8,35.8,39,47.4
			c17.2,11.6,38,18.4,60.2,18.4c14.8,0,29-3,41.9-8.5c19.3-8.2,35.8-21.8,47.4-39c11.6-17.2,18.4-38,18.4-60.2
			C611,525.2,608,511,602.5,498.1z M578.6,571.8c-6.2,14.6-16.6,27.2-29.6,36c-13.1,8.8-28.7,13.9-45.7,13.9
			c-11.3,0-22-2.3-31.8-6.4c-14.6-6.2-27.2-16.6-36-29.6c-8.8-13.1-13.9-28.7-13.9-45.7c0-11.3,2.3-22,6.4-31.8
			c6.2-14.6,16.6-27.2,29.6-36c13.1-8.8,28.7-13.9,45.7-13.9c11.3,0,22,2.3,31.8,6.4c14.6,6.2,27.2,16.6,36,29.6
			C579.8,507.4,585,523,585,540C585,551.3,582.7,562,578.6,571.8z"/>
	</g>
</g>
<g id="Keys">
	<rect x="47" y="41" style="fill:#FFFFFF;" width="175.9" height="211"/>
	<rect x="243.5" y="41" style="fill:#FFFFFF;" width="71.1" height="154"/>
	<rect x="334.3" y="41" style="fill:#FFFFFF;" width="175.9" height="211"/>
	<rect x="532.2" y="41" style="fill:#FFFFFF;" width="74.4" height="154"/>
	<rect x="629.3" y="41" style="fill:#FFFFFF;" width="175.9" height="211"/>
	<rect x="828.5" y="41" style="fill:#FFFFFF;" width="175.9" height="211"/>
	<rect x="1026.4" y="41" style="fill:#FFFFFF;" width="73.8" height="154"/>
	<rect x="1120.9" y="41" style="fill:#FFFFFF;" width="175.9" height="211"/>
	<rect x="1316.3" y="39" style="fill:#FFFFFF;" width="72.2" height="149"/>
	<rect x="1409.5" y="39" style="fill:#FFFFFF;" width="175.9" height="211"/>
	<rect x="1611.3" y="39" style="fill:#FFFFFF;" width="70.6" height="149"/>
	<rect x="1707.1" y="39" style="fill:#FFFFFF;" width="175.9" height="211"/>
</g>
<g id="Bass">
	<rect x="45.1" y="836.7" style="fill:#FFFFFF;" width="175.9" height="211"/>
	<rect x="241.6" y="836.7" style="fill:#FFFFFF;" width="71.1" height="154"/>
	<rect x="332.5" y="836.7" style="fill:#FFFFFF;" width="175.9" height="211"/>
	<rect x="530.4" y="836.7" style="fill:#FFFFFF;" width="74.4" height="154"/>
	<rect x="627.5" y="836.7" style="fill:#FFFFFF;" width="175.9" height="211"/>
	<rect x="826.7" y="836.7" style="fill:#FFFFFF;" width="175.9" height="211"/>
	<rect x="1024.6" y="836.7" style="fill:#FFFFFF;" width="73.8" height="154"/>
	<rect x="1119.1" y="836.7" style="fill:#FFFFFF;" width="175.9" height="211"/>
	<rect x="1314.4" y="834.7" style="fill:#FFFFFF;" width="72.2" height="149"/>
	<rect x="1407.6" y="834.7" style="fill:#FFFFFF;" width="175.9" height="211"/>
	<rect x="1609.4" y="834.7" style="fill:#FFFFFF;" width="70.6" height="149"/>
	<rect x="1705.2" y="834.7" style="fill:#FFFFFF;" width="175.9" height="211"/>
</g>
<g id="Vocals">
	<path style="fill:#FFFFFF;" d="M545.2,337c-4.4,7.4-8.5,15.1-13.4,22.2c-7.3,10.6-11.1,10.6-18.2,0c-5.6-8.3-10.1-17.2-15.6-25.5
		c-4.3-6.5-8.9-13-14.4-18.4c-6.8-6.7-16-6.9-23-0.3c-5.6,5.3-10.2,11.8-14.5,18.2c-5.5,8.3-10,17.3-15.5,25.6
		c-7.5,11.2-11.3,11.2-18.7,0c-5.7-8.6-10.3-17.9-16.1-26.4c-4.5-6.6-9.7-13.1-15.6-18.5c-5.6-5-12.9-4.8-19-0.3
		c-4.4,3.3-8.5,7.6-11.6,12.1c-1.8,2.7-3.5,5.4-5.2,8.1c-0.7,0.8-1.5,1.8-2.2,2.9c-4.4,7.4-8.5,15.1-13.4,22.2
		c-7.3,10.6-11.1,10.6-18.2,0c-5.6-8.3-10.1-17.2-15.6-25.5c-4.3-6.5-8.9-13-14.4-18.4c-6.8-6.7-16-6.9-23-0.3
		c-5.6,5.3-10.2,11.8-14.5,18.2c-5.5,8.3-10,17.3-15.5,25.6c-7.5,11.2-11.3,11.2-18.7,0c-5.7-8.6-10.3-17.9-16.1-26.4
		c-4.5-6.6-9.7-13.1-15.6-18.5c-5.6-5-12.9-4.8-19-0.3c-4.4,3.3-8.5,7.6-11.6,12.1c-5.6,8.2-10.4,17-15.5,25.5c0,1.3,0,2.7,0,4
		c4.8,6.6,9.5,6.5,13.7-0.5c0.9-1.6,1.7-3.2,2.7-4.8c4.8-7.4,9.2-15,14.5-22c4.1-5.4,6.9-5.3,11.2,0c4.1,5.2,7.5,10.9,11.2,16.5
		c6.4,9.7,11.9,20.1,19.3,28.9c8.9,10.6,20.4,10.1,29.6-0.3c4.8-5.4,8.6-11.8,12.6-17.9c5.5-8.5,10.4-17.4,16.2-25.7
		c5.1-7.3,8.7-7.2,13.8-0.1c5.3,7.4,9.7,15.5,14.7,23.1c4.7,7.2,9.1,14.8,14.8,21.2c7.6,8.7,17.6,9.5,25.7,2.7
		c3.9-3.3,7.3-7.3,10.1-11.5c1.5-2.3,3-4.6,4.4-7c0.8-0.8,1.5-1.8,2.2-3c0.9-1.6,1.7-3.2,2.7-4.8c4.8-7.4,9.2-15,14.5-22
		c4.1-5.4,6.9-5.3,11.2,0c4.1,5.2,7.5,10.9,11.2,16.5c6.4,9.7,11.9,20.1,19.3,28.9c8.9,10.6,20.4,10.1,29.6-0.3
		c4.8-5.4,8.6-11.8,12.6-17.9c5.5-8.5,10.4-17.4,16.2-25.7c5.1-7.3,8.7-7.2,13.8-0.1c5.3,7.4,9.7,15.5,14.7,23.1
		c4.7,7.2,9.1,14.8,14.8,21.2c7.6,8.7,17.6,9.5,25.7,2.7c3.9-3.3,7.3-7.3,10.1-11.5c5.3-8,10-16.5,14.9-24.7c0-1.3,0-2.7,0-4
		C554.1,329.7,549.3,330,545.2,337z"/>
	<path style="fill:#FFFFFF;" d="M537.2,724.5c-4.4,7.4-8.5,15.1-13.4,22.2c-7.3,10.6-11.1,10.6-18.2,0c-5.6-8.3-10.1-17.2-15.6-25.5
		c-4.3-6.5-8.9-13-14.4-18.4c-6.8-6.7-16-6.9-23-0.3c-5.6,5.3-10.2,11.8-14.5,18.2c-5.5,8.3-10,17.3-15.5,25.6
		c-7.5,11.2-11.3,11.2-18.7,0c-5.7-8.6-10.3-17.9-16.1-26.4c-4.5-6.6-9.7-13.1-15.6-18.5c-5.6-5-12.9-4.8-19-0.3
		c-4.4,3.3-8.5,7.6-11.6,12.1c-1.8,2.7-3.5,5.4-5.2,8.1c-0.7,0.8-1.5,1.8-2.2,2.9c-4.4,7.4-8.5,15.1-13.4,22.2
		c-7.3,10.6-11.1,10.6-18.2,0c-5.6-8.3-10.1-17.2-15.6-25.5c-4.3-6.5-8.9-13-14.4-18.4c-6.8-6.7-16-6.9-23-0.3
		c-5.6,5.3-10.2,11.8-14.5,18.2c-5.5,8.3-10,17.3-15.5,25.6c-7.5,11.2-11.3,11.2-18.7,0c-5.7-8.6-10.3-17.9-16.1-26.4
		c-4.5-6.6-9.7-13.1-15.6-18.5c-5.6-5-12.9-4.8-19-0.3c-4.4,3.3-8.5,7.6-11.6,12.1c-5.6,8.2-10.4,17-15.5,25.5c0,1.3,0,2.7,0,4
		c4.8,6.6,9.5,6.5,13.7-0.5c0.9-1.6,1.7-3.2,2.7-4.8c4.8-7.4,9.2-15,14.5-22c4.1-5.4,6.9-5.3,11.2,0c4.1,5.2,7.5,10.9,11.2,16.5
		c6.4,9.7,11.9,20.1,19.3,28.9c8.9,10.6,20.4,10.1,29.6-0.3c4.8-5.4,8.6-11.8,12.6-17.9c5.5-8.5,10.4-17.4,16.2-25.7
		c5.1-7.3,8.7-7.2,13.8-0.1c5.3,7.4,9.7,15.5,14.7,23.1c4.7,7.2,9.1,14.8,14.8,21.2c7.6,8.7,17.6,9.5,25.7,2.7
		c3.9-3.3,7.3-7.3,10.1-11.5c1.5-2.3,3-4.6,4.4-7c0.8-0.8,1.5-1.8,2.2-3c0.9-1.6,1.7-3.2,2.7-4.8c4.8-7.4,9.2-15,14.5-22
		c4.1-5.4,6.9-5.3,11.2,0c4.1,5.2,7.5,10.9,11.2,16.5c6.4,9.7,11.9,20.1,19.3,28.9c8.9,10.6,20.4,10.1,29.6-0.3
		c4.8-5.4,8.6-11.8,12.6-17.9c5.5-8.5,10.4-17.4,16.2-25.7c5.1-7.3,8.7-7.2,13.8-0.1c5.3,7.4,9.7,15.5,14.7,23.1
		c4.7,7.2,9.1,14.8,14.8,21.2c7.6,8.7,17.6,9.5,25.7,2.7c3.9-3.3,7.3-7.3,10.1-11.5c5.3-8,10-16.5,14.9-24.7c0-1.3,0-2.7,0-4
		C546.1,717.2,541.3,717.5,537.2,724.5z"/>
	<path style="fill:#FFFFFF;" d="M1769.2,337c-4.4,7.4-8.5,15.1-13.4,22.2c-7.3,10.6-11.1,10.6-18.2,0c-5.6-8.3-10.1-17.2-15.6-25.5
		c-4.3-6.5-8.9-13-14.4-18.4c-6.8-6.7-16-6.9-23-0.3c-5.6,5.3-10.2,11.8-14.5,18.2c-5.5,8.3-10,17.3-15.5,25.6
		c-7.5,11.2-11.3,11.2-18.7,0c-5.7-8.6-10.3-17.9-16.1-26.4c-4.5-6.6-9.7-13.1-15.6-18.5c-5.6-5-12.9-4.8-19-0.3
		c-4.4,3.3-8.5,7.6-11.6,12.1c-1.8,2.7-3.5,5.4-5.2,8.1c-0.7,0.8-1.5,1.8-2.2,2.9c-4.4,7.4-8.5,15.1-13.4,22.2
		c-7.3,10.6-11.1,10.6-18.2,0c-5.6-8.3-10.1-17.2-15.6-25.5c-4.3-6.5-8.9-13-14.4-18.4c-6.8-6.7-16-6.9-23-0.3
		c-5.6,5.3-10.2,11.8-14.5,18.2c-5.5,8.3-10,17.3-15.5,25.6c-7.5,11.2-11.3,11.2-18.7,0c-5.7-8.6-10.3-17.9-16.1-26.4
		c-4.5-6.6-9.7-13.1-15.6-18.5c-5.6-5-12.9-4.8-19-0.3c-4.4,3.3-8.5,7.6-11.6,12.1c-5.6,8.2-10.4,17-15.5,25.5c0,1.3,0,2.7,0,4
		c4.8,6.6,9.5,6.5,13.7-0.5c0.9-1.6,1.7-3.2,2.7-4.8c4.8-7.4,9.2-15,14.5-22c4.1-5.4,6.9-5.3,11.2,0c4.1,5.2,7.5,10.9,11.2,16.5
		c6.4,9.7,11.9,20.1,19.3,28.9c8.9,10.6,20.4,10.1,29.6-0.3c4.8-5.4,8.6-11.8,12.6-17.9c5.5-8.5,10.4-17.4,16.2-25.7
		c5.1-7.3,8.7-7.2,13.8-0.1c5.3,7.4,9.7,15.5,14.7,23.1c4.7,7.2,9.1,14.8,14.8,21.2c7.6,8.7,17.6,9.5,25.7,2.7
		c3.9-3.3,7.3-7.3,10.1-11.5c1.5-2.3,3-4.6,4.4-7c0.8-0.8,1.5-1.8,2.2-3c0.9-1.6,1.7-3.2,2.7-4.8c4.8-7.4,9.2-15,14.5-22
		c4.1-5.4,6.9-5.3,11.2,0c4.1,5.2,7.5,10.9,11.2,16.5c6.4,9.7,11.9,20.1,19.3,28.9c8.9,10.6,20.4,10.1,29.6-0.3
		c4.8-5.4,8.6-11.8,12.6-17.9c5.5-8.5,10.4-17.4,16.2-25.7c5.1-7.3,8.7-7.2,13.8-0.1c5.3,7.4,9.7,15.5,14.7,23.1
		c4.7,7.2,9.1,14.8,14.8,21.2c7.6,8.7,17.6,9.5,25.7,2.7c3.9-3.3,7.3-7.3,10.1-11.5c5.3-8,10-16.5,14.9-24.7c0-1.3,0-2.7,0-4
		C1778.1,329.7,1773.3,330,1769.2,337z"/>
	<path style="fill:#FFFFFF;" d="M1761.2,724.5c-4.4,7.4-8.5,15.1-13.4,22.2c-7.3,10.6-11.1,10.6-18.2,0
		c-5.6-8.3-10.1-17.2-15.6-25.5c-4.3-6.5-8.9-13-14.4-18.4c-6.8-6.7-16-6.9-23-0.3c-5.6,5.3-10.2,11.8-14.5,18.2
		c-5.5,8.3-10,17.3-15.5,25.6c-7.5,11.2-11.3,11.2-18.7,0c-5.7-8.6-10.3-17.9-16.1-26.4c-4.5-6.6-9.7-13.1-15.6-18.5
		c-5.6-5-12.9-4.8-19-0.3c-4.4,3.3-8.5,7.6-11.6,12.1c-1.8,2.7-3.5,5.4-5.2,8.1c-0.7,0.8-1.5,1.8-2.2,2.9
		c-4.4,7.4-8.5,15.1-13.4,22.2c-7.3,10.6-11.1,10.6-18.2,0c-5.6-8.3-10.1-17.2-15.6-25.5c-4.3-6.5-8.9-13-14.4-18.4
		c-6.8-6.7-16-6.9-23-0.3c-5.6,5.3-10.2,11.8-14.5,18.2c-5.5,8.3-10,17.3-15.5,25.6c-7.5,11.2-11.3,11.2-18.7,0
		c-5.7-8.6-10.3-17.9-16.1-26.4c-4.5-6.6-9.7-13.1-15.6-18.5c-5.6-5-12.9-4.8-19-0.3c-4.4,3.3-8.5,7.6-11.6,12.1
		c-5.6,8.2-10.4,17-15.5,25.5c0,1.3,0,2.7,0,4c4.8,6.6,9.5,6.5,13.7-0.5c0.9-1.6,1.7-3.2,2.7-4.8c4.8-7.4,9.2-15,14.5-22
		c4.1-5.4,6.9-5.3,11.2,0c4.1,5.2,7.5,10.9,11.2,16.5c6.4,9.7,11.9,20.1,19.3,28.9c8.9,10.6,20.4,10.1,29.6-0.3
		c4.8-5.4,8.6-11.8,12.6-17.9c5.5-8.5,10.4-17.4,16.2-25.7c5.1-7.3,8.7-7.2,13.8-0.1c5.3,7.4,9.7,15.5,14.7,23.1
		c4.7,7.2,9.1,14.8,14.8,21.2c7.6,8.7,17.6,9.5,25.7,2.7c3.9-3.3,7.3-7.3,10.1-11.5c1.5-2.3,3-4.6,4.4-7c0.8-0.8,1.5-1.8,2.2-3
		c0.9-1.6,1.7-3.2,2.7-4.8c4.8-7.4,9.2-15,14.5-22c4.1-5.4,6.9-5.3,11.2,0c4.1,5.2,7.5,10.9,11.2,16.5c6.4,9.7,11.9,20.1,19.3,28.9
		c8.9,10.6,20.4,10.1,29.6-0.3c4.8-5.4,8.6-11.8,12.6-17.9c5.5-8.5,10.4-17.4,16.2-25.7c5.1-7.3,8.7-7.2,13.8-0.1
		c5.3,7.4,9.7,15.5,14.7,23.1c4.7,7.2,9.1,14.8,14.8,21.2c7.6,8.7,17.6,9.5,25.7,2.7c3.9-3.3,7.3-7.3,10.1-11.5
		c5.3-8,10-16.5,14.9-24.7c0-1.3,0-2.7,0-4C1770.1,717.2,1765.3,717.5,1761.2,724.5z"/>
</g>
<g id="Logo">
	<rect x="47" y="273" width="1836" height="546"/>
	<g>
		<path style="fill:#FFFFFF;" d="M986.2,540.7c-4.7-4.8-10.6-8.8-17.4-12.3c-6.8-3.5-14.7-6.5-23.6-9l0,0
			c-4.9-1.4-11.7-3.1-20.7-5.3l0,0c-7.5-1.8-13.7-3.5-18.6-5.1c-4.8-1.5-8.3-3-10-3.9c-4.3-2.4-6.8-4.8-7.9-6.6l0,0
			c-0.6-0.9-1-1.8-1.3-3c-0.3-1.1-0.5-2.5-0.5-4.2c0-3.3,0.7-5.9,1.9-8.3c1.2-2.4,3.1-4.7,6.1-7l0.3-0.2l-0.3,0.2
			c3-2.3,6.4-4,10.5-5.2c4.1-1.2,8.9-1.9,14.4-1.9c5.1,0,9.5,0.6,13.1,1.7c3.6,1.1,6.5,2.6,8.9,4.5c2.4,2,4.2,4.2,5.7,6.9
			c1.4,2.8,2.5,6.1,3,10.3l1.2,9.3h44.9l-0.9-11.5c-0.7-9.2-3-17.8-6.8-25.4c-3.9-7.6-9.4-14.3-16.2-19.6
			c-6.8-5.4-14.8-9.3-23.7-11.9c-8.8-2.6-18.5-3.8-29.1-3.8c-11,0-21.3,1.3-30.7,4.1c-9.4,2.8-18,7-25.5,12.7
			c-7.5,5.7-13.5,12.5-17.5,20.4c-4,7.8-6,16.6-6,25.8c0,7.2,1.3,14.2,4,20.5c2.7,6.3,6.8,12,12.1,16.6l0,0
			c5.2,4.7,11.7,8.6,19.2,12c7.6,3.4,16.3,6.3,26.2,8.9l0,0l0,0c1.4,0.4,3.6,0.9,6.4,1.6l-0.1,0l0.1,0c8.7,2.1,16.1,4.5,22.3,7
			c9.3,3.8,15.7,7.9,19.2,11.7c1.8,1.9,2.9,3.6,3.7,5.3c0.7,1.7,1,3.3,1,5.2c0,4.7-0.8,8.4-2.3,11.6c-1.5,3.2-3.6,5.9-6.9,8.5
			c-3.3,2.6-7.1,4.6-11.9,6c-4.8,1.4-10.5,2.2-17.2,2.2c-6.1,0-11.3-0.8-15.8-2.2c-4.4-1.4-8.1-3.4-11.3-6c-3.2-2.6-5.4-5.5-7-8.8
			c-1.6-3.3-2.5-7.1-2.7-11.9l-0.4-10.2h-45.6l0.2,10.8c0.2,10.1,2.3,19.6,6.4,28.2c4.1,8.6,10.1,16.1,17.8,22.4l0,0
			c7.7,6.3,16.5,11,26.2,14.1c9.8,3.1,20.4,4.5,31.8,4.5c12.2,0,23.5-1.5,33.8-4.8c10.3-3.2,19.5-8.2,27.5-14.8
			c7.9-6.6,14.2-14.6,18.3-23.6c4.1-9,6.1-19.1,6.1-29.7c0-7.2-1.1-14-3.5-20.3C994.6,551.2,991,545.5,986.2,540.7z"/>
		<polygon style="fill:#FFFFFF;" points="1003.5,648 1127.1,648 1127.1,605.8 1046.2,605.8 1046.2,560.9 1127.1,560.9 1127.1,518.3 
			1046.2,518.3 1046.2,474.5 1127.1,474.5 1127.1,432 1003.5,432 		"/>
		<path style="fill:#FFFFFF;" d="M1196.6,490.7c6.7-6.9,13.7-11.9,21.3-15.2c7.6-3.3,15.8-5,25.1-5c12,0,22.1,2.4,31,7.1
			c8.7,4.6,17.1,12.1,24.9,22.9l3.5,4.9h6.1h42.2l-9-17.3c-9.8-18.8-23.4-33.8-40.6-44.3c-17.2-10.5-36.7-15.8-57.8-15.7
			c-14.7,0-28.7,2.6-41.6,8c-12.9,5.3-24.5,13.2-34.7,23.4c-10.9,10.7-19.3,22.9-25,36.4c-5.7,13.5-8.6,28-8.6,42.9
			c0,15.7,2.6,30.5,7.9,44.1c5.3,13.6,13.3,25.8,23.8,36.5c10.5,10.7,22.5,18.9,35.8,24.4c13.3,5.5,27.9,8.1,43.4,8.1
			c20.3,0,39.3-5,55.9-15.1c16.7-10,30.1-24.5,39.7-42.5l9.4-17.4H1301l-3.5,4.9c-7,9.7-14.9,16.6-23.8,21.3c-9,4.6-19,7-30.7,7
			c-9.3,0-17.6-1.7-25.2-5c-7.6-3.3-14.6-8.3-21.2-15.2c-6.6-6.9-11.3-14.5-14.6-22.8c-3.2-8.3-4.9-17.5-4.9-27.9
			c0-9.6,1.6-18.2,4.8-26.1C1185.1,505,1189.9,497.6,1196.6,490.7z"/>
		<polygon style="fill:#FFFFFF;" points="1799.7,605.8 1881.1,465.1 1881.1,432 1516.8,432 1516.8,648 1640.4,648 1640.4,605.8 
			1559.5,605.8 1559.5,560.9 1640.4,560.9 1640.4,518.3 1559.5,518.3 1559.5,474.5 1674.9,474.5 1674.9,648 1717.4,648 
			1717.4,474.5 1826.9,474.5 1745.7,614.9 1745.7,648 1883,648 1883,605.8 		"/>
		<path style="fill:#FFFFFF;" d="M1466.1,566.7c7.6-3.6,14.4-8.7,20.3-15.1c5.9-6.4,10.4-13.6,13.4-21.4c3-7.8,4.5-16.3,4.5-25
			c0-12-3-23.7-8.9-34.3c-5.8-10.6-14.1-19.4-24.3-25.8c-7.5-4.7-15.8-8.1-24.7-10.1c-9-2-19.9-2.8-33.1-2.9h-69.4v42.8l63.7-0.2
			c7.4,0,13.6,0.2,18.5,0.5c4.9,0.3,8.5,0.9,10.4,1.3c4.5,1.1,7.8,2.8,10.6,5l0,0c3.9,3.2,6.5,6.5,8.3,10.4v0
			c1.8,3.9,2.8,8.2,2.8,13.5c0,4.1-0.8,7.4-2.1,10.3c-1.4,2.9-3.4,5.5-6.4,8.2c-3.1,2.6-6.5,4.5-10.7,5.8c-4.2,1.3-9,2.1-14.8,2.1
			h-41.3l5.4,10l72.9,106.4h53.8l-54.5-79.1C1462.3,568.4,1464.2,567.6,1466.1,566.7z"/>
		<path style="fill:#FFFFFF;" d="M733.9,428.1l-44.7,85.1l-44.3-85.1H448.3v23.4c-4-4-8.4-7.6-13.2-10.6c-7.6-4.7-16-8-25-10
			c-9.1-2-20.2-2.8-33.6-2.8H306v216.1h44.8V537.3l74.6,106.9h54.4l-55.5-79.1c2-0.7,3.9-1.5,5.7-2.3c7.7-3.6,14.6-8.7,20.6-15.1
			c5.9-6.4,10.6-13.6,13.7-21.4c3.1-7.9,4.6-16.3,4.6-25.1c0-10.6-2.4-20.9-7.1-30.5h51v173.5h42.5v-11.8V470.7h59.7v-3l51.7,96.5
			v80h44.7v-79.7l72.8-136.4H733.9z M420.1,511.6c-1.4,2.9-3.4,5.5-6.6,8.2c-3.1,2.6-6.7,4.5-10.9,5.9c-4.3,1.4-9.3,2.1-15.2,2.1
			h-36.7v-57.1h19.8c7.6,0,13.9,0.2,18.9,0.5c5,0.3,8.7,0.9,10.6,1.3c4.6,1.1,8.1,2.8,10.9,5.1l0,0c3.9,3.2,6.6,6.5,8.5,10.4l0,0
			c1.8,3.9,2.8,8.2,2.8,13.4C422.2,505.5,421.5,508.7,420.1,511.6z"/>
		<path style="fill:#FFFFFF;" d="M140.7,643.2c8.5-0.7,15.8-1.6,22.1-3.1c11.9-2.8,23.1-7.6,33.3-14.1l0,0l0,0
			c15.3-9.9,27.3-23,35.6-38.7c8.3-15.7,12.4-33,12.4-51.6c0-16.8-3.7-32.9-11.3-47.8c-7.5-14.9-18.2-27.8-31.8-38.1
			c-10.1-7.7-21.8-13.3-34.8-16.7h0c-13-3.4-28.1-5-45.7-5H47v11.8v204.3h64.2C122.4,644.2,132.1,643.9,140.7,643.2z M188.3,464.6
			C188.3,464.6,188.3,464.6,188.3,464.6C188.3,464.6,188.3,464.6,188.3,464.6L188.3,464.6z M93.7,470.1h25.4
			c7.8,0,14.6,0.3,20.3,0.8c5.6,0.5,10.1,1.3,13.3,2.2l0,0c6.8,1.9,12.8,4.9,18.4,9.3l0,0l0,0c7.7,6,13.6,13.4,17.8,22.5
			c4.2,9.1,6.4,19.1,6.4,30.3c0,11.6-1.7,21.4-4.8,29.7c-3.1,8.3-7.6,15-13.5,20.5c-5.9,5.5-12.9,9.7-21.7,12.5
			c-8.7,2.9-19.1,4.4-31.5,4.4H93.7V470.1z"/>
		<polygon style="fill:#FFFFFF;" points="297.2,632.4 297.2,428.1 254.6,428.1 254.6,644.2 297.2,644.2 		"/>
	</g>
</g>
</svg>
